<svg xmlns="http://www.w3.org/2000/svg" width="19" height="27.834"><path fill="#FAAC2C" d="M18.889 17.12A9.387 9.387 0 019.5 26.507a9.39 9.39 0 119.389-9.388"/><path fill="#992500" d="M9.848 22.753c-2.273 0-4.72-.7-5.51-2.387a.532.532 0 01.256-.705.531.531 0 01.703.257c.662 1.416 3.253 1.943 5.472 1.735a.528.528 0 11.1 1.052c-.333.03-.675.048-1.021.048zm-1.887-6.748a.528.528 0 01-.522-.454 1.123 1.123 0 00-1.105-.957c-.55 0-1.025.412-1.104.957a.53.53 0 01-1.047-.151 2.188 2.188 0 012.15-1.866c1.076.002 2 .804 2.153 1.866a.53.53 0 01-.447.6c-.026.005-.053.005-.078.005zm5.993-1.177c0 1.01-.584 1.826-1.305 1.826s-1.303-.816-1.303-1.826c0-1.007.583-1.824 1.303-1.824s1.305.817 1.305 1.824"/><path d="M17.316.009a7.476 7.476 0 00-7.478 7.477c.003.087.005.172.01.257.163.013.33.022.494.025A7.477 7.477 0 0017.821.29V.289c-.003-.085-.005-.17-.01-.255a7.209 7.209 0 00-.495-.025zm-14.008 1.8a5.744 5.744 0 015.744 5.744 5.21 5.21 0 01-.006.197 5.598 5.598 0 01-.381.019A5.744 5.744 0 012.92 2.025v-.001c0-.065.003-.131.007-.196.126-.01.253-.018.381-.02z" fill="#479F00"/></svg>