<svg xmlns="http://www.w3.org/2000/svg" width="19" height="27.834"><path d="M17.315 1.085a7.478 7.478 0 00-7.477 7.478c.002.086.005.172.01.256.165.014.332.023.495.025a7.476 7.476 0 007.48-7.476v-.001a17.38 17.38 0 00-.01-.255 8.232 8.232 0 00-.498-.027zm-14.008 1.8A5.743 5.743 0 019.05 8.63a5.147 5.147 0 01-.008.196 5.52 5.52 0 01-.381.02 5.743 5.743 0 01-5.744-5.743 5.05 5.05 0 01.008-.197c.128-.01.256-.018.382-.02z" fill="#479F00"/><path fill="#FAAC2C" d="M18.889 17.12c0 5.185-4.203 9.386-9.389 9.386-5.185 0-9.389-4.202-9.389-9.386a9.39 9.39 0 0118.778 0"/><path fill="#FFF" d="M2.305 17.296a7.237 7.237 0 007.192 6.52 7.235 7.235 0 007.202-6.52H2.305z"/><path fill="#9A2400" d="M4.434 14.63a.45.45 0 01-.44-.546c.193-.886.882-1.849 1.602-2.239.47-.255 1.191-.426 1.746-.234.307.107.532.312.653.592a.45.45 0 11-.826.356c-.009-.021-.028-.065-.122-.096-.24-.084-.688-.007-1.022.172-.434.236-1.001.951-1.151 1.64a.453.453 0 01-.44.355zm10.135 0a.452.452 0 01-.44-.355c-.15-.689-.717-1.404-1.153-1.64-.332-.18-.781-.256-1.021-.172-.094.032-.114.075-.121.096a.452.452 0 01-.592.235.449.449 0 01-.235-.591 1.07 1.07 0 01.653-.592c.555-.192 1.275-.021 1.744.233.721.391 1.41 1.354 1.603 2.239a.449.449 0 01-.343.534.354.354 0 01-.095.013z"/></svg>