<svg xmlns="http://www.w3.org/2000/svg" width="19" height="27.834"><g transform="translate(-777.78 -6.548)"><path d="M795.094 7.633a7.478 7.478 0 00-7.477 7.477c.002.086.005.172.01.257.165.014.331.022.495.024a7.476 7.476 0 007.48-7.476v-.001c-.003-.085-.005-.17-.01-.255a7.482 7.482 0 00-.498-.026zm-14.009 1.799a5.742 5.742 0 015.743 5.744 6.415 6.415 0 01-.007.196 5.398 5.398 0 01-.38.019 5.741 5.741 0 01-5.744-5.742 4.32 4.32 0 01.007-.197c.128-.012.254-.018.381-.02z" fill="#479F00"/><circle fill="#F8AD32" cx="787.28" cy="23.666" r="9.389"/><path fill="#9A2400" d="M782.578 26.504a.566.566 0 01-.191-.035c-.847-.328-1.365-.871-1.544-1.615a.531.531 0 011.031-.247c.057.239.204.581.811.84h9.008c.549-.217.711-.478.801-.843a.535.535 0 01.641-.389c.283.07.457.357.389.642-.197.8-.678 1.299-1.555 1.616a.533.533 0 01-.18.031h-9.211z"/><path fill="#EA495F" d="M785.191 28.645c.029.777.96 1.669 1.947 1.591 1.02-.062 1.92-.709 1.989-1.431v-2.744l-4.055-.078.119 2.662z"/><path fill="#9A2400" d="M787.181 28.12a.527.527 0 01-.528-.528v-1.617a.528.528 0 111.057 0v1.617a.527.527 0 01-.529.528z"/><path fill="#9A2400" d="M787.18 30.567a2.37 2.37 0 01-2.367-2.369v-2.223c0-.219.178-.396.396-.396h3.943c.219 0 .396.179.396.396v2.224a2.37 2.37 0 01-2.368 2.368zm-1.573-4.196v1.826a1.576 1.576 0 003.149 0v-1.826h-3.149zm-3.492-5.195a.452.452 0 01-.441-.546c.193-.886.882-1.849 1.603-2.238.47-.255 1.19-.426 1.746-.233.307.106.531.312.652.591a.45.45 0 11-.826.357c-.009-.021-.026-.064-.121-.097-.24-.084-.689-.007-1.022.173-.434.236-1.001.951-1.151 1.641a.453.453 0 01-.44.352zm10.133 0a.45.45 0 01-.439-.354c-.15-.688-.717-1.403-1.152-1.64-.332-.18-.781-.257-1.021-.173-.094.032-.113.075-.123.097a.447.447 0 01-.59.234.447.447 0 01-.234-.591c.119-.279.346-.484.652-.591.555-.192 1.275-.021 1.744.232.721.391 1.41 1.354 1.604 2.239a.45.45 0 01-.441.547z"/></g></svg>