<svg xmlns="http://www.w3.org/2000/svg" width="19" height="27.979" viewBox="0 -0.145 19 27.979"><g transform="translate(-811.373 -6.934)"><path fill="#479F00" d="M820.36 7.039a7.477 7.477 0 00-2.183 10.346c.048.07.099.141.148.209.146-.078.289-.161.429-.25a7.476 7.476 0 002.183-10.346v-.001c-.048-.07-.097-.14-.146-.208a7.57 7.57 0 00-.431.25z"/><path fill="#479F00" d="M821.227 14.643a5.743 5.743 0 018.122-.034c.046.047.091.095.135.145a6.2 6.2 0 01-.255.283 5.743 5.743 0 01-8.123.035 9.195 9.195 0 01-.134-.145c.082-.098.167-.192.255-.284z"/><circle fill="#FAAC2C" cx="820.873" cy="24.052" r="9.389"/><circle fill="#FAAC2C" cx="826.518" cy="29.661" r="2.631"/><circle fill="#992500" cx="820.474" cy="21.629" r=".817"/><path fill="#9A2400" d="M820.474 22.712a1.082 1.082 0 110-2.164 1.082 1.082 0 010 2.164zm0-1.635a.554.554 0 10.001 1.107.554.554 0 00-.001-1.107z"/><circle fill="#992500" cx="825.505" cy="21.629" r=".817"/><path fill="#9A2400" d="M825.505 22.712a1.082 1.082 0 110-2.164 1.082 1.082 0 010 2.164zm0-1.635a.554.554 0 10.001 1.107.554.554 0 00-.001-1.107z"/><g fill="#9A2400"><circle cx="826.518" cy="29.661" r=".607"/><path d="M826.518 30.466a.806.806 0 010-1.61c.443 0 .805.361.805.805a.808.808 0 01-.805.805zm0-1.216a.411.411 0 10.411.411.413.413 0 00-.411-.411z"/></g><path fill="#9A2400" d="M817.732 20.796a.316.316 0 01-.315-.295c-.084-1.158.292-2.159 1.06-2.818.743-.638 1.784-.884 2.786-.654a.317.317 0 11-.141.619c-.808-.183-1.642.01-2.231.518-.61.524-.909 1.338-.84 2.29a.317.317 0 01-.293.34h-.026zm9.06-1.105l-.028-.001a.318.318 0 01-.289-.344c.048-.529-.089-.973-.393-1.283-.337-.344-.867-.521-1.457-.479a.317.317 0 11-.042-.633c.77-.054 1.485.191 1.953.668.437.447.635 1.063.572 1.783a.316.316 0 01-.316.289z"/></g></svg>